<?xml version="1.0" encoding="UTF-8"?>
<svg width="200" height="200" viewBox="0 0 200 200" fill="none" xmlns="http://www.w3.org/2000/svg">
  <rect width="200" height="200" rx="16" fill="#fef2f2"/>
  <path d="M50 120 C50 120 70 100 90 110 C110 120 130 100 150 110 L150 130 C150 130 130 120 110 130 C90 140 70 130 50 120 Z" fill="#fecaca"/>
  <path d="M50 120 C50 100 70 90 90 95 C110 100 130 90 150 100" fill="#fecaca"/>
  <circle cx="75" cy="95" r="8" fill="#fecaca"/>
  <circle cx="125" cy="85" r="8" fill="#fecaca"/>
  <circle cx="100" cy="75" r="10" fill="#fecaca"/>
  <path d="M60 140 Q100 160 140 140" stroke="#fecaca" stroke-width="6" stroke-linecap="round" fill="none"/>
  <text x="100" y="185" text-anchor="middle" font-family="Arial, sans-serif" font-size="14" fill="#717171">Sushi Bar</text>
</svg>
